<svg width="128" height="128" viewBox="0 0 128 128" fill="none" xmlns="http://www.w3.org/2000/svg">
<path d="M63.9475 87.0962L60.9092 75.0955L52.2803 83.9445L55.5617 72.0651L43.6515 75.338L52.5234 66.7315L40.6132 63.701L52.5234 60.5494L43.6515 51.9429L55.5617 55.2158L52.2803 43.4576L60.9092 52.1853L63.9475 40.3059L67.1074 52.1853L75.7362 43.4576L72.4548 55.2158L84.3651 51.9429L75.4932 60.5494L87.4034 63.701L75.4932 66.7315L84.3651 75.338L72.4548 72.0651L75.7362 83.9445L67.1074 75.0955L63.9475 87.0962Z" fill="#2727E6"/>
<path d="M13.5169 37.2316H7.42478V90.0239H13.5169V96.1203H0V31.1352H13.5169V37.2316Z" fill="#2727E6"/>
<path d="M114.483 89.8888L120.575 89.8888L120.575 37.0964L114.483 37.0964L114.483 31L128 31L128 95.9852L114.483 95.9852L114.483 89.8888Z" fill="#2727E6"/>
</svg>
